<?xml version="1.0" encoding="utf-8"?>
<!-- Generator: Adobe Illustrator 16.0.0, SVG Export Plug-In . SVG Version: 6.00 Build 0)  -->
<!DOCTYPE svg PUBLIC "-//W3C//DTD SVG 1.1//EN" "http://www.w3.org/Graphics/SVG/1.1/DTD/svg11.dtd">
<svg version="1.1" id="Layer_1" xmlns="http://www.w3.org/2000/svg" xmlns:xlink="http://www.w3.org/1999/xlink" x="0px" y="0px"
	 width="616px" height="282px" viewBox="0 0 616 282" enable-background="new 0 0 616 282" xml:space="preserve">
<path fill="none" stroke="#000000" stroke-miterlimit="10" d="M133.266,164.303c-22.03,0-39.869,17.864-39.869,39.908
	c0,1.694,0.127,3.363,0.333,5.006c2.483,19.658,19.22,34.862,39.536,34.862c20.863,0,37.975-16.038,39.727-36.479
	c0.073-1.121,0.152-2.241,0.152-3.389C173.145,182.167,155.305,164.303,133.266,164.303L133.266,164.303z M113.291,189.163
	l8.139,8.154c-0.627,1.077-1.123,2.244-1.461,3.497h-11.452C109.12,196.465,110.763,192.5,113.291,189.163L113.291,189.163z
	 M108.464,207.725h11.558c0.342,1.233,0.807,2.381,1.463,3.448l-8.166,8.157C110.789,216.018,109.093,212.06,108.464,207.725
	L108.464,207.725z M129.828,228.986c-4.33-0.602-8.245-2.296-11.584-4.8l8.113-8.116c1.066,0.632,2.242,1.067,3.471,1.381V228.986z
	 M129.828,190.929c-1.254,0.34-2.432,0.835-3.525,1.487l-8.131-8.137c3.338-2.531,7.296-4.219,11.656-4.818V190.929z
	 M136.738,179.461c4.324,0.599,8.293,2.288,11.631,4.818l-8.111,8.137c-1.096-0.652-2.271-1.147-3.52-1.487V179.461z
	 M136.738,228.986v-11.508c1.221-0.341,2.369-0.776,3.438-1.408l8.112,8.116C144.979,226.69,141.037,228.354,136.738,228.986
	L136.738,228.986z M153.242,219.356l-8.186-8.184c0.654-1.067,1.173-2.215,1.49-3.448h11.468
	C157.395,212.034,155.772,216.045,153.242,219.356L153.242,219.356z M146.565,200.814c-0.336-1.253-0.827-2.42-1.456-3.497
	l8.133-8.154c2.53,3.337,4.199,7.302,4.772,11.651H146.565z M146.565,200.814"/>
<path fill="none" stroke="#000000" stroke-miterlimit="10" d="M464.449,164.303c-22.012,0-39.876,17.864-39.876,39.908
	c0,1.694,0.132,3.363,0.365,5.006c2.451,19.658,19.195,34.862,39.511,34.862c20.89,0,37.998-16.038,39.719-36.479
	c0.104-1.121,0.183-2.241,0.183-3.389C504.351,182.167,486.486,164.303,464.449,164.303L464.449,164.303z M444.498,189.163
	l8.11,8.154c-0.625,1.077-1.12,2.244-1.434,3.497H439.7C440.3,196.465,441.968,192.5,444.498,189.163L444.498,189.163z
	 M439.673,207.725h11.555c0.312,1.233,0.808,2.381,1.434,3.448l-8.136,8.157C441.995,216.018,440.273,212.06,439.673,207.725
	L439.673,207.725z M461.007,228.986c-4.329-0.602-8.242-2.296-11.579-4.8l8.109-8.116c1.07,0.632,2.244,1.067,3.47,1.381V228.986z
	 M461.007,190.929c-1.252,0.34-2.426,0.835-3.521,1.487l-8.138-8.137c3.338-2.531,7.303-4.219,11.658-4.818V190.929z
	 M467.917,179.461c4.355,0.599,8.32,2.288,11.658,4.818l-8.138,8.109c-1.095-0.625-2.269-1.147-3.521-1.46V179.461z
	 M467.917,228.986v-11.508c1.226-0.341,2.399-0.776,3.442-1.408l8.137,8.116C476.159,226.69,472.221,228.354,467.917,228.986
	L467.917,228.986z M484.426,219.356l-8.163-8.184c0.626-1.067,1.147-2.215,1.486-3.448h11.449
	C488.599,212.034,486.956,216.045,484.426,219.356L484.426,219.356z M477.749,200.814c-0.312-1.253-0.808-2.42-1.434-3.497
	l8.136-8.154c2.505,3.337,4.173,7.302,4.772,11.651H477.749z M477.749,200.814"/>
<path fill="none" stroke="#000000" stroke-miterlimit="10" d="M560.238,143.674v-29.521c0-4.741-3.469-8.787-8.137-9.516
	c-11.267-1.748-31.217-5.085-40.163-7.85c-12.855-3.967-62.511-24.984-79.697-28.921c-17.212-3.939-94.746-25.037-169.021,0.727
	c-12.543,4.361-69.079,31.373-102.333,45.433c-9.78,0.205-106.688,20.398-111.854,34.242c-5.16,13.845-6.777,20.581-7.72,24.094
	c-0.968,3.502,0,20.316,7.198,32.026c7.331,4.172,21.463,6.938,37.788,8.813c-0.183-0.991-0.388-1.975-0.521-2.973
	c-0.262-2.158-0.414-4.146-0.414-6.017c0-26.419,21.482-47.915,47.9-47.915s47.91,21.496,47.91,47.915
	c0,1.355-0.106,2.705-0.209,4.035c-0.23,2.952-0.779,5.843-1.541,8.605h0.107l237.764-4.792c-0.104-0.599-0.234-1.2-0.312-1.832
	c-0.287-2.158-0.419-4.146-0.419-6.017c0-26.393,21.491-47.882,47.883-47.882c26.418,0,47.908,21.489,47.908,47.882
	c0,0.097,0,0.176,0,0.286l1.016-0.084l40.632-7.662c0,0,15.569-8.272,15.569-31.093C569.574,150.46,560.238,143.674,560.238,143.674
	L560.238,143.674z M324.377,115.693l-88.795,2.71c1.643-13.297-6.237-16.298-6.237-16.298
	c35.286-32.024,106.429-33.119,106.429-33.119L324.377,115.693z M424.027,111.628l-80.925,2.709l7.354-45.352
	c41.805-0.548,65.692,8.687,65.692,8.687l11.945,19.293L424.027,111.628z M469.639,111.342h-22.532l-22.533-30.959
	c16.899,6.728,30.436,13.378,38.493,17.58C467.97,100.494,470.629,105.911,469.639,111.342L469.639,111.342z M469.639,111.342"/>
</svg>
